<?xml version="1.0" encoding="UTF-8"?>
<svg width="1000" height="1000" xmlns="http://www.w3.org/2000/svg" xmlns:svg="http://www.w3.org/2000/svg">
  <style>
    .club {
      fill: #000000;
      stroke: #FF8C00;
    }

    .spade {
      fill: #000000;
      stroke: #FF8C00;
    }

    .diamond {
      fill: #DC143C;
      stroke: #A02020;
    }

    .heart {
      fill: #DC143C;
      stroke: #A02020;
    }

    .rank {
      transform: translate(8px, 10px) scale(0.15);
      stroke-width: 4px;
    }

    .suit {
      transform: translate(8px, 22px) scale(0.4);
      stroke-width: 1px;
    }

    .bottom {
      transform: rotate(180deg) translate(-60px, -80px);
    }

    .center-ace {
      transform: translate(30px, 40px) scale(2);
      stroke-width: 0.5px;
    }

    .center-two {
      transform: translate(30px, 20px) scale(0.75);
      stroke-width: 1px;
    }

    .center-three {
      transform: translate(30px, 40px) scale(0.75);
      stroke-width: 1px;
    }

    .center-six-left {
      transform: translate(21.5px, 40px) scale(0.75);
      stroke-width: 1px;
    }

    .center-six-right {
      transform: translate(38.5px, 40px) scale(0.75);
      stroke-width: 1px;
    }

    .four-left {
      transform: translate(21.5px, 20px) scale(0.75);
      stroke-width: 1px;
    }

    .four-right {
      transform: translate(38.5px, 20px) scale(0.75);
      stroke-width: 1px;
    }
  </style>
  <defs>
    <g id="grid10x10">
      <line x1="10%" y1="0" x2="10%" y2="100%" stroke="currentColor"/>
      <line x1="20%" y1="0" x2="20%" y2="100%" stroke="currentColor"/>
      <line x1="30%" y1="0" x2="30%" y2="100%" stroke="currentColor"/>
      <line x1="40%" y1="0" x2="40%" y2="100%" stroke="currentColor"/>
      <line x1="50%" y1="0" x2="50%" y2="100%" stroke="currentColor"/>
      <line x1="60%" y1="0" x2="60%" y2="100%" stroke="currentColor"/>
      <line x1="70%" y1="0" x2="70%" y2="100%" stroke="currentColor"/>
      <line x1="80%" y1="0" x2="80%" y2="100%" stroke="currentColor"/>
      <line x1="90%" y1="0" x2="90%" y2="100%" stroke="currentColor"/>

      <line y1="10%" x1="0" y2="10%" x2="100%" stroke="currentColor"/>
      <line y1="20%" x1="0" y2="20%" x2="100%" stroke="currentColor"/>
      <line y1="30%" x1="0" y2="30%" x2="100%" stroke="currentColor"/>
      <line y1="40%" x1="0" y2="40%" x2="100%" stroke="currentColor"/>
      <line y1="50%" x1="0" y2="50%" x2="100%" stroke="currentColor"/>
      <line y1="60%" x1="0" y2="60%" x2="100%" stroke="currentColor"/>
      <line y1="70%" x1="0" y2="70%" x2="100%" stroke="currentColor"/>
      <line y1="80%" x1="0" y2="80%" x2="100%" stroke="currentColor"/>
      <line y1="90%" x1="0" y2="90%" x2="100%" stroke="currentColor"/>
    </g>
    <!-- Ranks -->
    <g id="ranks">
      <g id="rankA">
        <g transform="translate(-30 -40)">
          <path d="M 19.81 62.802 L 22.01 62.402 Q 23.01 62.402 23.01 63.502 Q 23.01 67.002 21.61 69.402 Q 20.21 71.802 18.11 72.802 Q 14.71 74.502 12.31 74.502 Q 7.71 74.502 5.41 71.052 Q 3.11 67.602 3.11 60.652 Q 3.11 53.702 6.91 42.602 L 1.11 42.602 Q 0.01 42.602 0.01 41.502 Q 0.01 40.402 1.71 37.952 Q 3.41 35.502 5.31 35.502 L 9.81 35.502 Q 16.91 19.702 26.51 8.202 Q 29.01 5.202 32.66 2.602 Q 36.31 0.002 38.31 0.002 Q 40.31 0.002 41.31 1.802 Q 43.91 6.002 47.41 32.502 Q 48.61 43.902 51.56 56.052 Q 54.51 68.202 57.01 70.202 Q 57.61 70.602 57.61 71.202 Q 57.61 72.702 53.36 74.002 Q 49.11 75.302 46.86 75.302 Q 44.61 75.302 43.41 74.752 Q 42.21 74.202 41.91 73.602 Q 40.11 69.702 38.31 55.002 L 37.71 50.302 Q 37.31 45.602 36.91 43.202 L 36.21 42.702 L 15.31 42.602 Q 14.11 47.702 14.11 51.502 Q 14.11 55.302 14.36 57.052 Q 14.61 58.802 16.01 60.802 Q 17.41 62.802 19.81 62.802 Z M 17.31 35.502 L 17.41 35.502 Q 31.31 35.502 33.36 35.552 Q 35.41 35.602 35.61 35.402 Q 35.81 35.202 35.91 34.902 Q 34.21 22.602 33.21 18.152 Q 32.21 13.702 31.21 13.702 Q 30.21 13.702 28.71 15.702 Q 20.81 25.602 17.31 35.502 Z"/>
        </g>
      </g>
      <g id="rank2">
        <g transform="translate(-22 -39)">
          <path d="M 27.874 73.112 L 11.974 72.212 Q 6.274 72.212 2.674 73.812 Q 1.974 74.112 1.474 74.112 Q 0.174 74.112 0.174 70.762 Q 0.174 67.412 2.074 62.762 Q 3.974 58.112 6.674 54.112 Q 12.374 45.412 16.574 40.912 L 18.474 38.912 Q 23.974 33.012 27.324 27.312 Q 30.674 21.612 30.674 14.912 Q 30.674 8.612 25.774 6.912 Q 24.674 6.512 22.674 6.462 A 9.387 9.387 0 0 0 22.44 6.459 A 8.683 8.683 0 0 0 18.874 7.212 Q 17.074 8.012 16.174 9.212 Q 14.474 11.712 14.374 13.812 Q 14.174 17.412 15.974 18.612 L 16.474 19.012 Q 18.574 19.912 18.574 21.712 L 18.574 21.812 Q 18.574 24.512 16.974 26.062 Q 15.374 27.612 13.774 27.812 L 12.074 28.012 Q 9.074 28.012 7.024 26.912 Q 4.974 25.812 4.174 24.112 Q 2.674 21.112 2.674 18.112 Q 2.674 9.612 9.124 4.812 Q 15.574 0.012 23.874 0.012 Q 32.174 0.012 37.874 4.312 Q 43.574 8.612 43.574 16.312 Q 43.574 26.712 34.674 34.612 L 32.674 36.312 Q 19.274 47.712 15.074 54.912 Q 13.574 57.412 13.574 59.112 Q 13.574 60.212 15.524 60.462 Q 17.474 60.712 23.074 60.712 Q 37.174 60.712 41.374 56.112 Q 41.874 55.812 42.374 55.812 Q 43.574 55.812 43.574 59.212 Q 43.574 62.612 42.174 66.462 Q 40.774 70.312 38.074 71.912 Q 36.174 73.112 27.874 73.112 Z"/>
        </g>
      </g>
      <g id="rank3">
        <g transform="translate(-22 -39)">
          <path d="M 10.704 35.848 L 10.504 35.848 Q 9.804 35.848 9.804 35.348 L 9.804 35.148 Q 10.104 28.748 13.404 28.748 L 15.404 28.748 Q 19.004 28.748 21.654 27.548 Q 24.304 26.348 25.704 24.698 Q 27.104 23.048 27.904 20.748 Q 29.104 17.448 29.104 14.398 Q 29.104 11.348 28.204 9.548 Q 27.304 7.748 25.904 7.048 Q 23.704 5.948 20.904 5.948 Q 18.104 5.948 15.804 8.048 Q 13.504 10.148 13.504 13.648 Q 13.504 15.148 14.104 16.648 Q 14.704 18.148 14.704 18.448 Q 14.704 19.948 13.004 20.698 Q 11.304 21.448 9.054 21.448 Q 6.804 21.448 5.104 19.948 Q 3.404 18.448 3.054 16.998 Q 2.704 15.548 2.704 14.048 Q 2.704 9.148 6.104 5.848 Q 12.204 0.048 23.304 0.048 Q 25.604 0.048 29.054 0.898 Q 32.504 1.748 34.804 3.098 Q 37.104 4.448 39.004 7.448 Q 40.904 10.448 40.904 14.298 Q 40.904 18.148 39.654 21.098 Q 38.404 24.048 36.604 25.748 Q 32.804 29.248 29.904 29.948 L 28.704 30.348 Q 28.104 30.748 28.104 31.098 Q 28.104 31.448 28.754 31.548 Q 29.404 31.648 30.354 31.898 Q 31.304 32.148 33.804 33.398 Q 36.304 34.648 38.204 36.548 Q 40.104 38.448 41.654 42.098 Q 43.204 45.748 43.204 51.298 Q 43.204 56.848 40.804 61.498 Q 38.404 66.148 34.904 68.248 Q 27.804 72.648 22.304 72.848 L 19.904 72.948 Q 10.404 72.948 5.204 68.998 Q 0.004 65.048 0.004 58.548 Q 0.004 53.548 2.754 49.648 Q 5.504 45.748 10.104 45.748 Q 12.604 45.748 14.654 46.848 Q 16.704 47.948 16.704 50.048 Q 16.704 51.148 15.804 51.548 Q 14.304 52.448 13.504 54.098 Q 12.704 55.748 12.604 56.948 L 12.504 58.148 Q 12.504 61.748 14.504 63.998 Q 16.504 66.248 19.704 66.248 Q 30.104 66.248 30.104 49.148 Q 30.104 42.048 25.704 38.848 Q 21.304 35.648 14.204 35.648 L 13.004 35.648 L 10.704 35.848 Z"/>
        </g>
      </g>
      <g id="rank4">
        <g transform="translate(-26 -39)">
          <path d="M 28.808 54.01 L 20.208 53.91 L 2.208 54.11 Q 0.008 54.11 0.008 52.11 L 0.208 51.01 Q 6.608 35.21 21.708 15.11 Q 26.508 8.61 30.608 4.11 L 31.908 2.81 Q 34.508 0.11 39.608 0.11 Q 42.308 0.11 42.308 1.71 Q 40.708 15.81 40.708 30.41 L 40.708 43.11 Q 42.008 43.01 43.508 42.91 L 45.808 42.71 L 46.708 42.71 A 0.614 0.614 0 0 1 47.508 43.21 Q 47.508 44.91 45.808 48.71 Q 44.108 52.51 42.308 53.31 L 40.908 53.61 Q 41.108 64.91 41.908 68.81 Q 41.908 71.41 37.958 72.61 Q 34.008 73.81 30.458 73.81 Q 26.908 73.81 26.908 72.21 Q 26.908 72.01 27.508 68.21 Q 28.108 64.41 28.808 54.01 Z M 14.108 43.61 L 22.408 43.81 Q 26.808 43.81 29.308 43.71 Q 29.608 35.51 29.608 29.31 L 29.508 19.51 Q 29.508 18.21 28.808 18.21 L 27.608 18.81 Q 24.508 22.21 21.058 27.71 Q 17.608 33.21 15.708 37.11 L 13.808 40.91 Q 13.408 41.81 13.408 42.71 Q 13.408 43.61 14.108 43.61 Z"/>
        </g>
      </g>
      <g id="rank5">
        <g transform="translate(-22 -39)">
          <path d="M 34.118 12.109 L 24.218 11.409 Q 14.918 11.409 14.518 13.909 Q 13.118 20.509 12.918 25.609 Q 12.918 26.609 13.618 26.609 Q 13.818 26.609 14.218 26.409 Q 17.818 24.509 22.518 24.509 Q 27.218 24.509 30.968 25.909 Q 34.718 27.309 36.818 29.709 Q 38.918 32.109 40.368 34.559 Q 41.818 37.009 42.418 40.009 Q 43.218 44.809 43.218 48.009 Q 43.218 58.609 37.468 65.659 Q 31.718 72.709 21.118 72.709 L 20.818 72.709 Q 11.518 72.709 5.768 69.109 Q 0.018 65.509 0.018 58.209 Q 0.018 54.709 1.068 52.109 Q 2.118 49.509 3.618 48.309 Q 6.718 45.809 9.218 45.609 L 10.218 45.509 Q 12.518 45.509 14.618 46.559 Q 16.718 47.609 16.718 49.709 Q 16.718 50.509 15.618 51.359 Q 14.518 52.209 13.718 53.859 Q 12.918 55.509 12.818 56.609 L 12.618 57.809 Q 12.618 60.509 13.518 62.359 Q 14.418 64.209 15.818 64.809 Q 18.118 65.909 19.718 65.909 Q 23.218 65.909 25.568 63.559 Q 27.918 61.209 28.818 57.609 Q 30.118 52.009 30.118 48.909 Q 30.118 31.809 20.518 31.809 Q 14.618 31.809 11.018 37.209 Q 10.518 38.909 6.718 38.909 Q 2.918 38.909 2.918 37.309 L 2.918 36.909 Q 5.118 24.009 6.518 2.109 Q 6.818 1.209 7.918 1.009 Q 12.018 0.809 17.118 0.809 L 28.618 1.009 Q 37.818 1.009 39.718 0.209 Q 40.118 0.009 40.618 0.009 Q 41.618 0.009 41.618 1.009 Q 41.618 3.809 39.268 7.959 Q 36.918 12.109 34.118 12.109 Z"/>
        </g>
      </g>
      <g id="rank6">
        <g transform="translate(-22 -39)">
          <path d="M 22.506 73.205 Q 16.706 73.205 12.456 71.405 Q 8.206 69.605 5.856 66.855 Q 3.506 64.105 2.206 59.905 Q 0.006 53.105 0.006 44.755 Q 0.006 36.405 0.556 31.005 Q 1.106 25.605 2.856 19.705 Q 4.606 13.805 7.356 9.605 Q 10.106 5.405 14.906 2.705 Q 19.706 0.005 26.006 0.005 Q 30.006 0.005 35.406 1.805 Q 38.606 2.905 40.706 5.805 Q 42.806 8.705 42.806 13.005 Q 42.806 15.805 41.606 17.705 Q 39.306 21.405 35.406 21.405 Q 33.206 21.405 31.356 20.005 Q 29.506 18.605 29.506 17.255 Q 29.506 15.905 30.406 14.605 Q 31.306 13.305 31.306 11.605 Q 31.306 6.005 24.806 6.005 Q 24.306 6.005 23.556 6.105 Q 22.806 6.205 20.806 7.555 Q 18.806 8.905 17.306 11.255 Q 15.806 13.605 14.556 18.805 Q 13.306 24.005 13.306 31.205 Q 13.406 32.005 13.906 32.005 Q 14.006 32.005 14.406 31.805 Q 15.606 30.405 19.106 29.055 Q 22.606 27.705 26.406 27.705 Q 30.206 27.705 33.406 29.005 Q 36.606 30.305 38.356 32.505 Q 40.106 34.705 41.306 36.955 Q 42.506 39.205 43.006 41.705 Q 43.706 46.005 43.706 47.705 Q 43.706 58.405 38.156 65.805 Q 32.606 73.205 22.506 73.205 Z M 29.856 42.355 Q 29.106 39.205 27.106 37.155 Q 25.106 35.105 22.156 35.105 Q 19.206 35.105 17.206 37.155 Q 15.206 39.205 14.406 42.305 Q 13.306 47.205 13.306 50.705 Q 13.306 54.205 13.906 57.455 Q 14.506 60.705 16.606 63.605 Q 18.706 66.505 21.706 66.505 Q 24.706 66.505 26.556 64.755 Q 28.406 63.005 29.306 60.305 Q 31.006 55.205 31.006 52.205 Q 31.006 49.205 30.806 47.355 Q 30.606 45.505 29.856 42.355 Z"/>
        </g>
      </g>
      <g id="rank7">
        <g transform="translate(-18 -38)">
          <path d="M 11.06 0.1 L 26.26 0.6 Q 31.46 0.6 34.76 0.2 L 35.86 0 Q 37.56 0 37.56 3.8 Q 37.56 7.6 36.26 10.5 Q 18.46 39 18.46 63.2 Q 18.46 67.9 19.21 69.2 Q 19.96 70.5 19.96 70.6 Q 19.96 72.4 14.46 72.4 Q 4.66 72.4 4.66 68.7 Q 4.66 54.9 15.61 34.1 Q 26.56 13.3 26.56 11.7 Q 26.56 10.9 25.76 10.7 Q 22.36 10.5 19.71 10.5 Q 17.06 10.5 13.76 11.15 Q 10.46 11.8 8.56 12.8 Q 4.76 14.7 3.76 16.2 L 3.26 16.9 Q 2.56 18.1 1.76 18.1 Q 0.56 18.1 0.56 16.3 Q 0.56 1.3 3.96 0.6 Q 5.96 0.1 11.06 0.1 Z"/>
        </g>
      </g>
      <g id="rank8">
        <g transform="translate(-25 -39)">
          <path d="M 12.92 33.908 L 14.32 33.208 Q 14.92 33.008 14.92 32.608 L 14.42 32.008 Q 3.82 27.608 3.82 17.208 Q 3.82 9.008 9.87 4.508 Q 15.92 0.008 24.32 0.008 Q 27.92 0.008 31.52 0.958 Q 35.12 1.908 37.42 3.308 Q 39.72 4.708 41.47 7.558 Q 43.22 10.408 43.22 14.608 Q 43.22 18.808 40.62 22.908 Q 38.02 27.008 34.02 29.608 Q 33.22 30.008 33.22 30.258 Q 33.22 30.508 33.82 31.008 Q 35.42 31.608 37.97 33.558 Q 40.52 35.508 42.17 37.558 Q 43.82 39.608 45.22 43.108 Q 46.62 46.608 46.62 49.308 Q 46.62 52.008 46.42 53.808 Q 46.22 55.608 44.92 59.308 Q 43.62 63.008 41.32 65.758 Q 39.02 68.508 34.22 70.708 Q 29.42 72.908 22.82 72.908 Q 12.92 72.908 6.47 67.958 Q 0.02 63.008 0.02 54.008 Q 0.02 49.708 1.47 45.958 Q 2.92 42.208 5.02 39.908 Q 9.12 35.508 12.92 33.908 Z M 34.02 52.908 Q 33.52 44.408 26.52 39.708 Q 23.32 37.508 22.57 37.508 Q 21.82 37.508 20.97 37.958 Q 20.12 38.408 18.87 39.558 Q 17.62 40.708 16.52 42.308 Q 13.72 46.108 13.72 52.808 Q 13.72 56.008 14.72 59.408 Q 16.82 65.908 23.62 65.908 Q 29.02 65.908 31.52 61.708 Q 34.02 57.508 34.02 52.908 Z M 27.02 25.708 Q 29.52 24.008 30.62 20.608 Q 31.72 17.208 31.72 14.908 Q 31.72 12.608 30.97 10.658 Q 30.22 8.708 29.12 7.908 Q 27.02 6.108 24.27 6.008 A 13.578 13.578 0 0 0 23.777 5.999 A 9.111 9.111 0 0 0 19.57 6.908 Q 17.62 7.908 16.82 9.508 Q 15.52 12.108 15.52 14.608 Q 15.52 19.008 19.82 22.558 Q 24.12 26.108 26.02 26.108 Q 26.52 26.108 27.02 25.708 Z"/>
        </g>
      </g>
      <g id="rank9">
        <g transform="translate(-22 -39)">
          <path d="M 18.44 67.314 L 18.54 67.314 Q 30.64 67.314 30.64 40.214 Q 30.54 39.414 30.04 39.414 Q 29.94 39.414 29.54 39.614 Q 28.34 41.014 24.84 42.364 Q 21.34 43.714 17.74 43.714 Q 9.64 43.714 4.94 38.264 Q 0.24 32.814 0.24 25.314 Q 0.24 11.714 7.94 4.914 Q 13.74 0.014 20.29 0.014 Q 26.84 0.014 31.14 1.714 Q 35.44 3.414 37.89 6.064 Q 40.34 8.714 41.74 12.914 Q 43.94 19.614 43.94 30.614 Q 43.94 73.314 18.44 73.314 Q 14.14 73.314 9.44 71.914 Q 0.14 69.114 0.14 60.014 Q 0.14 50.914 8.34 50.914 Q 10.44 50.914 12.09 52.364 Q 13.74 53.814 13.74 55.314 Q 13.74 56.814 12.69 58.514 Q 11.64 60.214 11.64 61.214 Q 11.64 67.314 18.44 67.314 Z M 13.64 28.564 Q 14.34 31.514 16.44 33.914 Q 18.54 36.314 21.79 36.314 Q 25.04 36.314 27.14 33.714 Q 30.64 29.514 30.64 22.214 Q 30.64 18.814 29.74 14.814 Q 27.74 6.814 21.74 6.814 Q 18.84 6.814 16.84 8.864 Q 14.84 10.914 14.14 14.014 Q 12.94 18.814 12.94 22.214 Q 12.94 25.614 13.64 28.564 Z"/>
        </g>
      </g>
      <g id="rankT">
        <g transform="translate(-39 -39)">
          <path d="M 68.9 67.85 Q 66.4 70.6 62.5 72.1 Q 58.6 73.6 53.05 73.6 Q 47.5 73.6 43 71.45 Q 38.5 69.3 36.05 66.05 Q 33.6 62.8 32.1 57.9 Q 30.6 53 30.2 48.6 Q 29.8 44.2 29.8 38.25 Q 29.8 32.3 30.3 27.3 Q 30.8 22.3 32.3 17.05 Q 33.8 11.8 36.35 8.3 Q 38.9 4.8 43.3 2.55 Q 47.7 0.3 53.35 0.3 Q 59 0.3 63.1 2 Q 67.2 3.7 69.7 6.85 Q 72.2 10 73.8 13.4 Q 75.4 16.8 76.1 21.4 Q 77.3 29.2 77.3 35.35 Q 77.3 41.5 76.95 45.5 Q 76.6 49.5 75.75 53.95 Q 74.9 58.4 73.15 61.75 Q 71.4 65.1 68.9 67.85 Z M 20.8 29.8 L 21.3 62.7 Q 21.3 67.5 21.2 68.8 Q 21.1 71.2 17.2 72.35 Q 13.3 73.5 10.3 73.5 Q 7.3 73.5 7.3 72 A 87.278 87.278 0 0 1 7.8 66.6 Q 9.6 52.2 9.6 35.1 L 9.2 19.8 Q 8.6 14.6 3.7 14.6 L 1.7 14.8 Q 0 14.8 0 13.7 Q 0 11.2 8.35 5.6 Q 16.7 0 20.1 0 Q 21.7 0 21.7 2.05 Q 21.7 4.1 21.25 12.7 Q 20.8 21.3 20.8 29.8 Z M 64.1 36.95 Q 64.1 7.1 53.55 7.1 Q 43 7.1 43 36.95 Q 43 66.8 53.55 66.8 Q 64.1 66.8 64.1 36.95 Z"/>
        </g>
      </g>
      <g id="rankJ">
        <g transform="translate(-16 -39)">
          <path d="M 9.702 52.948 L 9.902 32.748 Q 9.902 9.048 7.602 5.948 Q 6.502 4.548 6.502 3.998 Q 6.502 3.448 7.852 2.698 Q 9.202 1.948 13.102 1.048 Q 17.002 0.148 20.002 0.148 Q 23.002 0.148 23.002 1.548 L 22.802 2.848 Q 21.602 13.648 21.602 23.948 Q 21.602 34.248 22.202 46.948 Q 22.802 59.648 22.802 65.648 Q 22.802 73.748 16.552 79.598 Q 10.302 85.448 1.702 85.948 Q 0.002 85.748 0.002 84.748 Q 0.002 84.048 0.452 83.648 Q 0.902 83.248 1.502 82.648 Q 2.102 82.048 3.702 79.548 Q 5.302 77.048 6.502 73.898 Q 7.702 70.748 8.702 65.148 Q 9.702 59.548 9.702 52.948 Z"/>
        </g>
      </g>
      <g id="rankQ">
        <g transform="translate(-26 -39)">
          <path d="M 9.029 17.307 L 9.429 16.707 Q 10.429 12.107 12.679 8.757 Q 14.929 5.407 17.179 3.757 Q 19.429 2.107 22.229 1.207 Q 25.929 0.007 28.729 0.007 Q 35.429 0.007 40.279 3.107 Q 45.129 6.207 47.629 11.507 Q 52.229 21.607 52.229 34.407 Q 52.229 55.907 42.029 66.107 Q 46.729 71.307 51.229 71.307 Q 52.529 71.307 52.529 72.207 Q 52.529 73.807 48.829 75.657 Q 45.129 77.507 40.929 77.507 L 37.729 77.207 Q 36.429 77.007 35.629 76.257 Q 34.829 75.507 34.629 74.207 L 33.929 71.407 Q 29.229 73.307 24.329 73.307 Q 11.829 73.307 5.929 64.757 Q 0.029 56.207 0.029 43.107 Q 0.029 35.507 1.329 29.157 Q 2.629 22.807 4.029 20.207 L 5.329 17.607 Q 5.729 16.707 6.629 16.707 Q 7.529 16.707 7.979 16.857 Q 8.429 17.007 8.679 17.157 Q 8.929 17.307 9.029 17.307 Z M 26.529 56.607 L 25.729 55.907 Q 25.429 55.507 25.429 55.107 Q 25.429 54.007 27.429 54.007 Q 31.529 54.007 35.829 58.307 Q 39.629 50.507 39.629 38.007 Q 39.629 17.807 32.929 11.207 Q 30.029 8.407 26.729 8.407 Q 23.429 8.407 21.029 11.007 Q 16.829 15.607 16.829 22.657 Q 16.829 29.707 20.429 31.107 Q 21.329 31.407 21.329 32.407 Q 21.329 35.407 19.329 37.457 Q 17.329 39.507 14.429 39.907 Q 13.529 39.907 13.529 40.607 Q 13.429 41.707 13.429 43.757 Q 13.429 45.807 13.629 48.257 Q 13.829 50.707 14.579 54.057 Q 15.329 57.407 16.579 59.857 Q 17.829 62.307 20.179 64.057 Q 22.529 65.807 25.629 65.807 Q 28.729 65.807 31.329 64.007 Q 29.029 58.807 26.529 56.607 Z"/>
        </g>
      </g>
      <g id="rankK">
        <g transform="translate(-24 -39)">
          <path d="M 31.1 56.049 L 31.1 52.049 Q 31.1 41.549 28.1 36.849 Q 25.5 32.749 23.4 32.249 Q 21.8 31.749 21.7 31.749 L 20.6 32.249 Q 18.2 35.049 16.8 37.649 Q 15.4 40.249 15.3 41.449 L 15.1 42.749 Q 15.1 56.849 16.3 66.849 Q 16.5 68.049 16.5 68.249 Q 16.5 70.449 11.85 72.049 Q 7.2 73.649 4.25 73.649 Q 1.3 73.649 1.3 72.749 Q 1.3 72.149 1.6 71.249 Q 2.6 69.049 3.05 56.699 Q 3.5 44.349 3.5 34.199 Q 3.5 24.049 3.1 17.749 Q 2.5 8.249 1.1 6.349 Q 0 4.949 0 4.549 Q 0 3.149 5.15 1.849 Q 10.3 0.549 13.45 0.549 Q 16.6 0.549 16.6 1.949 L 16.5 3.249 Q 15.2 14.049 15.2 26.349 Q 15.2 27.349 15.65 27.349 Q 16.1 27.349 16.7 26.449 Q 17.3 25.549 18.45 23.949 Q 19.6 22.349 22.65 18.149 Q 25.7 13.949 28.3 10.649 Q 30.9 7.349 33.55 4.499 Q 36.2 1.649 37.9 0.949 Q 39.6 0.249 44.8 0.249 Q 50 0.249 50 1.549 Q 50 2.049 48.9 2.649 Q 47.8 3.249 45.9 4.549 Q 44 5.849 37.95 11.649 Q 31.9 17.449 25.8 25.249 Q 25.6 25.449 25.6 25.799 Q 25.6 26.149 26.15 26.249 Q 26.7 26.349 27.7 26.549 Q 28.7 26.749 31.35 28.099 Q 34 29.449 36.1 31.499 Q 38.2 33.549 40.15 37.799 Q 42.1 42.049 42.4 45.799 Q 42.7 49.549 43 52.549 Q 43.3 55.549 44.55 61.149 Q 45.8 66.749 47.5 67.849 Q 48 68.249 48 68.849 Q 48 70.449 43.6 71.799 Q 39.2 73.149 35.75 73.149 Q 32.3 73.149 31.8 70.349 Q 31.3 67.349 31.1 56.049 Z"/>
        </g>
      </g>
    </g>

    <!-- Suits -->
    <g id="suits">
      <path id="suitD" d="M -9,0 L 0,-13 L 9,0 L 0,13 L -9,0 z "/>
      <g id="suitC" transform="scale(1.2)">
        <path d="M -2,-2.86 C -4.4,-4.0 -5.6,-10.4 0,-10.4 C 5.6,-10.4 4.4,-4.0 2,-2.8 C 3.6,-4.0 8.8,-5.6 8.8,0 C 8.8,5.6 1.6,5.2 1.2,0.8 L 0.4,0.8 C 0.4,0.8 0.8,5.2 2,7.2 L -2,7.2 C -0.8,5.2 -0.4,0.8 -0.4,0.8 L -1.2,0.9 C -1.6,5.2 -9.2,5.6 -9.2,0 C -9.2,-4.8 -3.6,-4.0 -2,-2.8 z "/>
      </g>
      <path id="suitH" d="M 0,-5 C 0,-7 -2.5,-10 -5,-10 C -7.5,-10 -10,-8 -10,-4.6 C -10,1 -2,10 0,12.4 C 2,10 10,1 10,-4.6 C 10,-8 7.5,-10 5,-10 C 2.5,-10 0,-7 0,-5 z "/>
      <path id="suitS" d="M 0,-12.3 C -4,-6.3 -9.2,-2.8 -9.2,2.2 C -9.2,6.7 -6.7,7.7 -5.2,7.7 C -3.2,7.7 -1.7,6.7 -1.7,3.2 C -1.7,2.2 -0.7,2.2 -0.7,3.2 C -0.7,8.2 -1.7,8.2 -2.7,10.7 L 2.8,10.7 C 1.8,8.2 0.8,8.2 0.8,3.2 C 0.8,2.2 1.8,2.2 1.8,3.2 C 1.8,7.2 3.3,7.7 5.3,7.7 C 6.8,7.7 9.8,6.7 9.8,2.2 C 9.8,-2.9 4,-6.3 0,-12.3 z "/>
    </g>

    <g id="cards">
      <g id="background">
        <radialGradient id="bgGradient">
          <stop offset="0%" stop-color="#ffffee"/>
          <stop offset="99%" stop-color="#f0f0d0"/>
        </radialGradient>
        <rect id="bgRect" x="1" y="1" width="58" height="78" rx="5" fill="url(#bgGradient)" stroke-width="1" stroke="#bbaa77"/>
      </g>
      <g id="cardAC" class="card ace club">
        <use href="#bgRect"/>
        <use href="#suitC" class="center-ace"/>

        <g id="cardACTop">
          <use href="#rankA" class="rank"/>
          <use href="#suitC" class="suit"/>
        </g>
        <use href="#cardACTop" class="bottom"/>
      </g>
      <g id="cardAD" class="card ace diamond">
        <use href="#bgRect"/>
        <use href="#suitD" class="center-ace"/>

        <g id="cardADTop">
          <use href="#rankA" class="rank"/>
          <use href="#suitD" class="suit"/>
        </g>
        <use href="#cardADTop" class="bottom"/>
      </g>
      <g id="cardAH" class="card ace heart">
        <use href="#bgRect"/>
        <use href="#suitH" class="center-ace"/>

        <g id="cardAHTop">
          <use href="#rankA" class="rank"/>
          <use href="#suitH" class="suit"/>
        </g>
        <use href="#cardAHTop" class="bottom"/>
      </g>
      <g id="cardAS" class="card ace spade">
        <use href="#bgRect"/>
        <use href="#suitS" class="center-ace"/>

        <g id="cardASTop">
          <use href="#rankA" class="rank"/>
          <use href="#suitS" class="suit"/>
        </g>
        <use href="#cardASTop" class="bottom"/>
      </g>
      <g id="card2C" class="card two club">
        <use href="#bgRect"/>

        <g id="card2CTop">
          <use href="#suitC" class="center-two"/>
          <use href="#rank2" class="rank"/>
          <use href="#suitC" class="suit"/>
        </g>
        <use href="#card2CTop" class="bottom"/>
      </g>
      <g id="card2D" class="card two diamond">
        <use href="#bgRect"/>

        <g id="card2DTop">
          <use href="#suitD" class="center-two"/>
          <use href="#rank2" class="rank"/>
          <use href="#suitD" class="suit"/>
        </g>
        <use href="#card2DTop" class="bottom"/>
      </g>
      <g id="card2S" class="card two spade">
        <use href="#bgRect"/>

        <g id="card2STop">
          <use href="#suitS" class="center-two"/>
          <use href="#rank2" class="rank"/>
          <use href="#suitS" class="suit"/>
        </g>
        <use href="#card2STop" class="bottom"/>
      </g>
      <g id="card2H" class="card two heart">
        <use href="#bgRect"/>

        <g id="card2HTop">
          <use href="#suitH" class="center-two"/>
          <use href="#rank2" class="rank"/>
          <use href="#suitH" class="suit"/>
        </g>
        <use href="#card2HTop" class="bottom"/>
      </g>
      <g id="card3C" class="card three club">
        <use href="#bgRect"/>
        <use href="#suitC" class="center-three"/>

        <g id="card3CTop">
          <use href="#suitC" class="center-two"/>
          <use href="#rank3" class="rank"/>
          <use href="#suitC" class="suit"/>
        </g>
        <use href="#card3CTop" class="bottom"/>
      </g>
      <g id="card3D" class="card three diamond">
        <use href="#bgRect"/>
        <use href="#suitD" class="center-three"/>

        <g id="card3DTop">
          <use href="#suitD" class="center-two"/>
          <use href="#rank3" class="rank"/>
          <use href="#suitD" class="suit"/>
        </g>
        <use href="#card3DTop" class="bottom"/>
      </g>
      <g id="card3S" class="card three spade">
        <use href="#bgRect"/>
        <use href="#suitS" class="center-three"/>

        <g id="card3STop">
          <use href="#suitS" class="center-two"/>
          <use href="#rank3" class="rank"/>
          <use href="#suitS" class="suit"/>
        </g>
        <use href="#card3STop" class="bottom"/>
      </g>
      <g id="card3H" class="card three heart">
        <use href="#bgRect"/>
        <use href="#suitH" class="center-three"/>

        <g id="card3HTop">
          <use href="#suitH" class="center-two"/>
          <use href="#rank3" class="rank"/>
          <use href="#suitH" class="suit"/>
        </g>
        <use href="#card3HTop" class="bottom"/>
      </g>
      <g id="card4C" class="card four club">
        <use href="#bgRect"/>
        <g id="card4CTop">
          <use href="#suitC" class="four-left"/>
          <use href="#suitC" class="four-right"/>
          <use href="#rank4" class="rank"/>
          <use href="#suitC" class="suit"/>
        </g>
        <use href="#card4CTop" class="bottom"/>
      </g>
      <g id="card4D" class="card four diamond">
        <use href="#bgRect"/>
        <g id="card4DTop">
          <use href="#suitD" class="four-left"/>
          <use href="#suitD" class="four-right"/>
          <use href="#rank4" class="rank"/>
          <use href="#suitD" class="suit"/>
        </g>
        <use href="#card4DTop" class="bottom"/>
      </g>
      <g id="card4S" class="card four spade">
        <use href="#bgRect"/>
        <g id="card4STop">
          <use href="#suitS" class="four-left"/>
          <use href="#suitS" class="four-right"/>
          <use href="#rank4" class="rank"/>
          <use href="#suitS" class="suit"/>
        </g>
        <use href="#card4STop" class="bottom"/>
      </g>
      <g id="card4H" class="card four heart">
        <use href="#bgRect"/>
        <g id="card4HTop">
          <use href="#suitH" class="four-left"/>
          <use href="#suitH" class="four-right"/>
          <use href="#rank4" class="rank"/>
          <use href="#suitH" class="suit"/>
        </g>
        <use href="#card4HTop" class="bottom"/>
      </g>
      <g id="card5C" class="card five club">
        <use href="#bgRect"/>
        <use href="#suitC" class="center-three"/>
        <g id="card5CTop">
          <use href="#suitC" class="four-left"/>
          <use href="#suitC" class="four-right"/>
          <use href="#rank5" class="rank"/>
          <use href="#suitC" class="suit"/>
        </g>
        <use href="#card5CTop" class="bottom"/>
      </g>
      <g id="card5D" class="card five diamond">
        <use href="#bgRect"/>
        <use href="#suitD" class="center-three"/>
        <g id="card5DTop">
          <use href="#suitD" class="four-left"/>
          <use href="#suitD" class="four-right"/>
          <use href="#rank5" class="rank"/>
          <use href="#suitD" class="suit"/>
        </g>
        <use href="#card5DTop" class="bottom"/>
      </g>
      <g id="card5S" class="card five spade">
        <use href="#bgRect"/>
        <use href="#suitS" class="center-three"/>
        <g id="card5STop">
          <use href="#suitS" class="four-left"/>
          <use href="#suitS" class="four-right"/>
          <use href="#rank5" class="rank"/>
          <use href="#suitS" class="suit"/>
        </g>
        <use href="#card5STop" class="bottom"/>
      </g>
      <g id="card5H" class="card five heart">
        <use href="#bgRect"/>
        <use href="#suitH" class="center-three"/>
        <g id="card5HTop">
          <use href="#suitH" class="four-left"/>
          <use href="#suitH" class="four-right"/>
          <use href="#rank5" class="rank"/>
          <use href="#suitH" class="suit"/>
        </g>
        <use href="#card5HTop" class="bottom"/>
      </g>
      <g id="card6C" class="card six club">
        <use href="#bgRect"/>
        <use href="#suitC" class="center-six-left"/>
        <use href="#suitC" class="center-six-right"/>

        <g id="card6CTop">
          <use href="#suitC" class="four-left"/>
          <use href="#suitC" class="four-right"/>
          <use href="#rank6" class="rank"/>
          <use href="#suitC" class="suit"/>
        </g>
        <use href="#card6CTop" class="bottom"/>
      </g>
      <g id="card6D" class="card six diamond">
        <use href="#bgRect"/>
        <use href="#suitD" class="center-six-left"/>
        <use href="#suitD" class="center-six-right"/>

        <g id="card6DTop">
          <use href="#suitD" class="four-left"/>
          <use href="#suitD" class="four-right"/>
          <use href="#rank6" class="rank"/>
          <use href="#suitD" class="suit"/>
        </g>
        <use href="#card6DTop" class="bottom"/>
      </g>
      <g id="card6S" class="card six spade">
        <use href="#bgRect"/>
        <use href="#suitS" class="center-six-left"/>
        <use href="#suitS" class="center-six-right"/>

        <g id="card6STop">
          <use href="#suitS" class="four-left"/>
          <use href="#suitS" class="four-right"/>
          <use href="#rank6" class="rank"/>
          <use href="#suitS" class="suit"/>
        </g>
        <use href="#card6STop" class="bottom"/>
      </g>
      <g id="card6H" class="card six heart">
        <use href="#bgRect"/>
        <use href="#suitH" class="center-six-left"/>
        <use href="#suitH" class="center-six-right"/>

        <g id="card6HTop">
          <use href="#suitH" class="four-left"/>
          <use href="#suitH" class="four-right"/>
          <use href="#rank6" class="rank"/>
          <use href="#suitH" class="suit"/>
        </g>
        <use href="#card6HTop" class="bottom"/>
      </g>
    </g>
  </defs>
  <g>
    <title>Grid</title>
    <use href="#grid10x10" stroke="grey"/>
    <!-- <use href="#grid10x10" stroke="yellow" stroke-width="3" transform="scale(0.1 0.2)" /> -->

    <use href="#rankA" x="10%" y="10%"/>
    <use href="#rank2" x="20%" y="10%"/>
    <use href="#rank3" x="30%" y="10%"/>
    <use href="#rank4" x="40%" y="10%"/>
    <use href="#rank5" x="50%" y="10%"/>
    <use href="#rank6" x="60%" y="10%"/>
    <use href="#rank7" x="70%" y="10%"/>
    <use href="#rank8" x="80%" y="10%"/>
    <use href="#rank9" x="90%" y="10%"/>
    <use href="#rankT" x="10%" y="30%"/>
    <use href="#rankJ" x="20%" y="30%"/>
    <use href="#rankQ" x="30%" y="30%"/>
    <use href="#rankK" x="40%" y="30%"/>

    <use href="#suitD" x="50%" y="30%" fill="red" stroke="gold"/>
    <use href="#suitC" x="60%" y="30%" fill="black" stroke="darkgoldenrod"/>
    <use href="#suitH" x="70%" y="30%" fill="red" stroke="gold"/>
    <use href="#suitS" x="80%" y="30%" fill="black" stroke="darkgoldenrod"/>

    <use href="#cardAC" transform="translate(0, 400) scale(1.667)"/>
    <use href="#cardAD" transform="translate(100, 400) scale(1.667)"/>
    <use href="#cardAS" transform="translate(200, 400) scale(1.667)"/>
    <use href="#cardAH" transform="translate(300, 400) scale(1.667)"/>

    <use href="#card2C" transform="translate(400, 400) scale(1.667)"/>
    <use href="#card2D" transform="translate(500, 400) scale(1.667)"/>
    <use href="#card2S" transform="translate(600, 400) scale(1.667)"/>
    <use href="#card2H" transform="translate(700, 400) scale(1.667)"/>

    <use href="#card3C" transform="translate(0, 600) scale(1.667)"/>
    <use href="#card3D" transform="translate(100, 600) scale(1.667)"/>
    <use href="#card3S" transform="translate(200, 600) scale(1.667)"/>
    <use href="#card3H" transform="translate(300, 600) scale(1.667)"/>

    <use href="#card4C" transform="translate(400, 600) scale(1.667)"/>
    <use href="#card4D" transform="translate(500, 600) scale(1.667)"/>
    <use href="#card4S" transform="translate(600, 600) scale(1.667)"/>
    <use href="#card4H" transform="translate(700, 600) scale(1.667)"/>

    <use href="#card5C" transform="translate(0, 800) scale(1.667)"/>
    <use href="#card5D" transform="translate(100, 800) scale(1.667)"/>
    <use href="#card5S" transform="translate(200, 800) scale(1.667)"/>
    <use href="#card5H" transform="translate(300, 800) scale(1.667)"/>

    <use href="#card6C" transform="translate(400, 800) scale(1.667)"/>
    <use href="#card6D" transform="translate(500, 800) scale(1.667)"/>
    <use href="#card6S" transform="translate(600, 800) scale(1.667)"/>
    <use href="#card6H" transform="translate(700, 800) scale(1.667)"/>
  </g>
</svg>
